<svg xmlns="http://www.w3.org/2000/svg" xmlns:xlink="http://www.w3.org/1999/xlink" viewBox="0,0,256,256" width="50px" height="50px"><g fill="#ffffff" fill-rule="nonzero" stroke="none" stroke-width="1" stroke-linecap="butt" stroke-linejoin="miter" stroke-miterlimit="10" stroke-dasharray="" stroke-dashoffset="0" font-family="none" font-weight="none" font-size="none" text-anchor="none" style="mix-blend-mode: normal"><g transform="scale(5.12,5.12)"><path d="M16.375,-0.03125c-0.04297,0.00781 -0.08594,0.01953 -0.125,0.03125c-0.32812,0.07422 -0.59766,0.30469 -0.71875,0.62109c-0.12109,0.31641 -0.07422,0.66797 0.125,0.94141l2.125,3.1875c-3.59766,1.89063 -6.17969,5.15234 -6.78125,9.03125c0,0.01172 0,0.01953 0,0.03125c0,0.01172 0,0.01953 0,0.03125c0,0.03125 0,0.0625 0,0.09375c0,0.01953 0,0.04297 0,0.0625c-0.00391,0.05078 -0.00391,0.10547 0,0.15625v1.40625c-0.59375,-0.34766 -1.26562,-0.5625 -2,-0.5625c-2.19922,0 -4,1.80078 -4,4v12c0,2.19922 1.80078,4 4,4c0.73438,0 1.40625,-0.21484 2,-0.5625v2.5625c0,1.64453 1.35547,3 3,3h1v6c0,2.19922 1.80078,4 4,4c2.19922,0 4,-1.80078 4,-4v-6h4v6c0,2.19922 1.80078,4 4,4c2.19922,0 4,-1.80078 4,-4v-6h1c1.64453,0 3,-1.35547 3,-3v-2.5625c0.59375,0.34766 1.26563,0.5625 2,0.5625c2.19922,0 4,-1.80078 4,-4v-12c0,-2.19922 -1.80078,-4 -4,-4c-0.73437,0 -1.40625,0.21484 -2,0.5625v-1.375c0.01172,-0.09375 0.01172,-0.1875 0,-0.28125c0,-0.01172 0,-0.01953 0,-0.03125c0,-0.01172 0,-0.01953 0,-0.03125c-0.58203,-3.90625 -3.16406,-7.19531 -6.78125,-9.09375l2.125,-3.1875c0.24609,-0.33594 0.25391,-0.78906 0.02344,-1.13672c-0.22656,-0.34766 -0.64844,-0.51953 -1.05469,-0.42578c-0.25781,0.05859 -0.48437,0.21484 -0.625,0.4375l-2.34375,3.46875c-1.64844,-0.59375 -3.46094,-0.90625 -5.34375,-0.90625c-1.88281,0 -3.69531,0.3125 -5.34375,0.90625l-2.34375,-3.46875c-0.19922,-0.32031 -0.5625,-0.5 -0.9375,-0.46875zM25,5c1.87891,0 3.64063,0.36719 5.1875,1.03125c0.03125,0.01172 0.0625,0.02344 0.09375,0.03125c3.12891,1.37109 5.40625,3.9375 6.28125,6.9375h-23.125c0.86328,-2.95703 3.09375,-5.49219 6.15625,-6.875c0.06641,-0.02344 0.12891,-0.05469 0.1875,-0.09375c1.55469,-0.67187 3.32813,-1.03125 5.21875,-1.03125zM19.5,8c-0.83203,0 -1.5,0.67188 -1.5,1.5c0,0.83203 0.66797,1.5 1.5,1.5c0.82813,0 1.5,-0.66797 1.5,-1.5c0,-0.82812 -0.67187,-1.5 -1.5,-1.5zM30.5,8c-0.82812,0 -1.5,0.67188 -1.5,1.5c0,0.83203 0.67188,1.5 1.5,1.5c0.83203,0 1.5,-0.66797 1.5,-1.5c0,-0.82812 -0.66797,-1.5 -1.5,-1.5zM13,15h24v22c0,0.5625 -0.4375,1 -1,1h-7.8125c-0.13281,-0.02734 -0.27344,-0.02734 -0.40625,0h-11.59375c-0.13281,-0.02734 -0.27344,-0.02734 -0.40625,0h-1.78125c-0.5625,0 -1,-0.4375 -1,-1zM9,17c1.11719,0 2,0.88281 2,2v12c0,1.11719 -0.88281,2 -2,2c-1.11719,0 -2,-0.88281 -2,-2v-12c0,-1.11719 0.88281,-2 2,-2zM41,17c1.11719,0 2,0.88281 2,2v12c0,1.11719 -0.88281,2 -2,2c-1.11719,0 -2,-0.88281 -2,-2v-12c0,-1.11719 0.88281,-2 2,-2zM17,40h4v6c0,1.11719 -0.88281,2 -2,2c-1.11719,0 -2,-0.88281 -2,-2zM29,40h4v6c0,1.11719 -0.88281,2 -2,2c-1.11719,0 -2,-0.88281 -2,-2z"></path></g></g></svg>