<svg width="24" height="24" viewBox="0 0 24 24" fill="none" xmlns="http://www.w3.org/2000/svg">
<path d="M6.5 19.5C5.11796 19.5 3.93912 19.0199 2.96347 18.0596C1.98784 17.0994 1.50002 15.9282 1.50002 14.5462C1.50002 13.3231 1.89169 12.2353 2.67502 11.2827C3.45836 10.3302 4.45772 9.76671 5.6731 9.59236C5.99362 8.09747 6.74521 6.87503 7.9279 5.92503C9.11058 4.97503 10.4679 4.50003 12 4.50003C13.809 4.50003 15.3445 5.13112 16.6067 6.39331C17.8689 7.65547 18.5 9.19104 18.5 11V11.5H18.8077C19.8615 11.5821 20.7404 12.0058 21.4442 12.7712C22.1481 13.5366 22.5 14.4462 22.5 15.5C22.5 16.6154 22.1122 17.5609 21.3365 18.3365C20.5609 19.1122 19.6154 19.5 18.5 19.5H6.5ZM6.5 18H18.5C19.2 18 19.7917 17.7583 20.275 17.275C20.7583 16.7917 21 16.2 21 15.5C21 14.8 20.7583 14.2083 20.275 13.725C19.7917 13.2417 19.2 13 18.5 13H17V11C17 9.61667 16.5125 8.43751 15.5375 7.46251C14.5625 6.48751 13.3833 6.00001 12 6.00001C10.6167 6.00001 9.4375 6.48751 8.4625 7.46251C7.4875 8.43751 7 9.61667 7 11H6.5C5.53333 11 4.70833 11.3417 4.025 12.025C3.34166 12.7083 3 13.5333 3 14.5C3 15.4667 3.34166 16.2917 4.025 16.975C4.70833 17.6583 5.53333 18 6.5 18Z" fill="#808080"/>
</svg>
