<svg width="24" height="24" viewBox="0 0 24 24" fill="none" xmlns="http://www.w3.org/2000/svg">
<path d="M9.0577 17.5C8.55257 17.5 8.12501 17.325 7.77502 16.975C7.42502 16.625 7.25002 16.1974 7.25002 15.6923V4.30773C7.25002 3.8026 7.42502 3.37503 7.77502 3.02503C8.12501 2.67503 8.55257 2.50003 9.0577 2.50003H17.4423C17.9474 2.50003 18.3749 2.67503 18.7249 3.02503C19.0749 3.37503 19.2499 3.8026 19.2499 4.30773V15.6923C19.2499 16.1974 19.0749 16.625 18.7249 16.975C18.3749 17.325 17.9474 17.5 17.4423 17.5H9.0577ZM9.0577 16H17.4423C17.5192 16 17.5897 15.968 17.6538 15.9039C17.7179 15.8397 17.75 15.7692 17.75 15.6923V4.30773C17.75 4.2308 17.7179 4.16027 17.6538 4.09616C17.5897 4.03206 17.5192 4.00001 17.4423 4.00001H9.0577C8.98077 4.00001 8.91025 4.03206 8.84615 4.09616C8.78203 4.16027 8.74997 4.2308 8.74997 4.30773V15.6923C8.74997 15.7692 8.78203 15.8397 8.84615 15.9039C8.91025 15.968 8.98077 16 9.0577 16ZM5.55772 20.9999C5.05261 20.9999 4.62505 20.8249 4.27505 20.4749C3.92505 20.1249 3.75005 19.6974 3.75005 19.1923V6.30773H5.25002V19.1923C5.25002 19.2692 5.28207 19.3397 5.34617 19.4038C5.41029 19.4679 5.48081 19.5 5.55772 19.5H15.4423V20.9999H5.55772Z" fill="white"/>
</svg>
