<svg width="24" height="24" viewBox="0 0 24 24" fill="none" xmlns="http://www.w3.org/2000/svg">
<path d="M5.30773 21.5C4.8026 21.5 4.37503 21.325 4.02503 20.975C3.67503 20.625 3.50003 20.1974 3.50003 19.6923V6.30772C3.50003 5.80259 3.67503 5.37502 4.02503 5.02502C4.37503 4.67502 4.8026 4.50002 5.30773 4.50002H6.69236V2.38464H8.23078V4.50002H15.8077V2.38464H17.3077V4.50002H18.6923C19.1974 4.50002 19.625 4.67502 19.975 5.02502C20.325 5.37502 20.5 5.80259 20.5 6.30772V19.6923C20.5 20.1974 20.325 20.625 19.975 20.975C19.625 21.325 19.1974 21.5 18.6923 21.5H5.30773ZM5.30773 20H18.6923C18.7692 20 18.8397 19.9679 18.9039 19.9038C18.968 19.8397 19 19.7692 19 19.6923V10.3077H5.00001V19.6923C5.00001 19.7692 5.03206 19.8397 5.09616 19.9038C5.16027 19.9679 5.2308 20 5.30773 20ZM5.00001 8.80774H19V6.30772C19 6.23079 18.968 6.16026 18.9039 6.09614C18.8397 6.03204 18.7692 5.99999 18.6923 5.99999H5.30773C5.2308 5.99999 5.16027 6.03204 5.09616 6.09614C5.03206 6.16026 5.00001 6.23079 5.00001 6.30772V8.80774ZM12 14.0769C11.7551 14.0769 11.5465 13.9907 11.3741 13.8183C11.2016 13.6458 11.1154 13.4372 11.1154 13.1923C11.1154 12.9475 11.2016 12.7388 11.3741 12.5664C11.5465 12.3939 11.7551 12.3077 12 12.3077C12.2449 12.3077 12.4535 12.3939 12.626 12.5664C12.7984 12.7388 12.8846 12.9475 12.8846 13.1923C12.8846 13.4372 12.7984 13.6458 12.626 13.8183C12.4535 13.9907 12.2449 14.0769 12 14.0769ZM8.00001 14.0769C7.75514 14.0769 7.54649 13.9907 7.37406 13.8183C7.20162 13.6458 7.11541 13.4372 7.11541 13.1923C7.11541 12.9475 7.20162 12.7388 7.37406 12.5664C7.54649 12.3939 7.75514 12.3077 8.00001 12.3077C8.24487 12.3077 8.45352 12.3939 8.62596 12.5664C8.79839 12.7388 8.88461 12.9475 8.88461 13.1923C8.88461 13.4372 8.79839 13.6458 8.62596 13.8183C8.45352 13.9907 8.24487 14.0769 8.00001 14.0769ZM16 14.0769C15.7551 14.0769 15.5465 13.9907 15.3741 13.8183C15.2016 13.6458 15.1154 13.4372 15.1154 13.1923C15.1154 12.9475 15.2016 12.7388 15.3741 12.5664C15.5465 12.3939 15.7551 12.3077 16 12.3077C16.2449 12.3077 16.4535 12.3939 16.626 12.5664C16.7984 12.7388 16.8846 12.9475 16.8846 13.1923C16.8846 13.4372 16.7984 13.6458 16.626 13.8183C16.4535 13.9907 16.2449 14.0769 16 14.0769ZM12 18C11.7551 18 11.5465 17.9138 11.3741 17.7413C11.2016 17.5689 11.1154 17.3603 11.1154 17.1154C11.1154 16.8705 11.2016 16.6619 11.3741 16.4894C11.5465 16.317 11.7551 16.2308 12 16.2308C12.2449 16.2308 12.4535 16.317 12.626 16.4894C12.7984 16.6619 12.8846 16.8705 12.8846 17.1154C12.8846 17.3603 12.7984 17.5689 12.626 17.7413C12.4535 17.9138 12.2449 18 12 18ZM8.00001 18C7.75514 18 7.54649 17.9138 7.37406 17.7413C7.20162 17.5689 7.11541 17.3603 7.11541 17.1154C7.11541 16.8705 7.20162 16.6619 7.37406 16.4894C7.54649 16.317 7.75514 16.2308 8.00001 16.2308C8.24487 16.2308 8.45352 16.317 8.62596 16.4894C8.79839 16.6619 8.88461 16.8705 8.88461 17.1154C8.88461 17.3603 8.79839 17.5689 8.62596 17.7413C8.45352 17.9138 8.24487 18 8.00001 18ZM16 18C15.7551 18 15.5465 17.9138 15.3741 17.7413C15.2016 17.5689 15.1154 17.3603 15.1154 17.1154C15.1154 16.8705 15.2016 16.6619 15.3741 16.4894C15.5465 16.317 15.7551 16.2308 16 16.2308C16.2449 16.2308 16.4535 16.317 16.626 16.4894C16.7984 16.6619 16.8846 16.8705 16.8846 17.1154C16.8846 17.3603 16.7984 17.5689 16.626 17.7413C16.4535 17.9138 16.2449 18 16 18Z" fill="#999999"/>
</svg>
