<svg width="24" height="24" viewBox="0 0 24 24" fill="none" xmlns="http://www.w3.org/2000/svg">
<path d="M12 15.7885L7.73083 11.5193L8.78466 10.4347L11.25 12.9001V4.50003H12.75V12.9001L15.2154 10.4347L16.2692 11.5193L12 15.7885ZM6.30773 19.5C5.8026 19.5 5.37503 19.325 5.02503 18.975C4.67503 18.625 4.50003 18.1974 4.50003 17.6923V14.9808H6.00001V17.6923C6.00001 17.7692 6.03206 17.8397 6.09616 17.9039C6.16027 17.968 6.2308 18 6.30773 18H17.6923C17.7692 18 17.8397 17.968 17.9039 17.9039C17.968 17.8397 18 17.7692 18 17.6923V14.9808H19.5V17.6923C19.5 18.1974 19.325 18.625 18.975 18.975C18.625 19.325 18.1974 19.5 17.6923 19.5H6.30773Z" fill="white"/>
</svg>
