<svg width="24" height="24" viewBox="0 0 24 24" fill="none" xmlns="http://www.w3.org/2000/svg">
<path d="M3.42885 18.1731L2.37503 17.0885L9.47115 9.9731L13.4519 13.9539L16.7173 10.3C15.7968 9.22307 14.7343 8.3705 13.5298 7.7423C12.3253 7.11409 11.0122 6.79998 9.59038 6.79998C8.41988 6.79998 7.31283 7.01119 6.26923 7.43363C5.22565 7.85606 4.27245 8.42946 3.40963 9.15383L2.3558 8.06923C3.35067 7.20641 4.45932 6.52918 5.68175 6.03753C6.90419 5.54586 8.20706 5.30003 9.59038 5.30003C11.1852 5.30003 12.6711 5.63881 14.0481 6.31638C15.425 6.99394 16.6494 7.94362 17.7212 9.1654L20.5904 5.9154L21.6442 7L18.6442 10.3808C19.1878 11.232 19.6368 12.1599 19.9913 13.1644C20.3458 14.1689 20.5827 15.2141 20.7019 16.3H19.202C19.0891 15.4987 18.8974 14.7013 18.6269 13.9077C18.3564 13.1141 18.0071 12.3372 17.5789 11.5769L13.5135 16.1231L9.47115 12.1115L3.42885 18.1731Z" fill="#808080"/>
</svg>
