<svg xmlns="http://www.w3.org/2000/svg" xmlns:xlink="http://www.w3.org/1999/xlink" viewBox="0,0,256,256" width="50px" height="50px"><g fill="#ffffff" fill-rule="nonzero" stroke="none" stroke-width="1" stroke-linecap="butt" stroke-linejoin="miter" stroke-miterlimit="10" stroke-dasharray="" stroke-dashoffset="0" font-family="none" font-weight="none" font-size="none" text-anchor="none" style="mix-blend-mode: normal"><g transform="scale(5.12,5.12)"><path d="M33.375,0c-2.83594,0.19141 -5.87109,1.87891 -7.75,4.15625c-1.64453,2.00391 -3.02344,4.94531 -2.5,8c-0.46875,-0.14453 -0.89453,-0.16016 -1.40625,-0.34375c-1.39453,-0.49609 -2.98828,-1.03125 -4.96875,-1.03125c-3.93359,0 -7.96094,2.33984 -10.5,6.25c-3.69531,5.67969 -2.95312,15.67578 2.65625,24.21875c0.98828,1.5 2.14063,3.13672 3.5625,4.4375c1.42188,1.30078 3.14063,2.29297 5.15625,2.3125c1.72266,0.01953 2.92188,-0.55469 4,-1.03125c1.07813,-0.47656 2.08203,-0.89844 3.96875,-0.90625c0.01172,0 0.01953,0 0.03125,0c1.87891,-0.01562 2.85156,0.39844 3.90625,0.875c1.05469,0.47656 2.24219,1.07813 3.96875,1.0625c2.05469,-0.01562 3.80078,-1.14062 5.25,-2.53125c1.44922,-1.39062 2.64063,-3.09766 3.625,-4.59375c1.41016,-2.14844 1.97656,-3.32031 3.0625,-5.71875c0.11328,-0.25 0.11719,-0.53906 0.00781,-0.79297c-0.10547,-0.25391 -0.3125,-0.45312 -0.57031,-0.55078c-3.55469,-1.34375 -5.58203,-4.48828 -5.875,-7.8125c-0.29297,-3.32422 1.11328,-6.74609 4.65625,-8.6875c0.26172,-0.14062 0.44531,-0.38672 0.50781,-0.67578c0.05859,-0.28906 -0.01172,-0.59375 -0.19531,-0.82422c-2.54297,-3.16016 -6.12109,-5.03125 -9.625,-5.03125c-2.23437,0 -3.875,0.52734 -5.21875,1.03125c-0.22266,0.08594 -0.38672,0.07813 -0.59375,0.15625c1.36328,-0.71875 2.56641,-1.71484 3.46875,-2.875c1.64063,-2.10547 2.90625,-5.10156 2.4375,-8.25c-0.07812,-0.51562 -0.54297,-0.88281 -1.0625,-0.84375zM32.3125,2.375c-0.06641,2.01953 -0.75781,3.99609 -1.90625,5.46875c-1.20312,1.54688 -3.22656,2.61719 -5.1875,2.9375c0.03516,-1.94141 0.80078,-3.95312 1.96875,-5.375c1.22656,-1.48437 3.25781,-2.55469 5.125,-3.03125zM16.75,12.78125c1.61328,0 2.90625,0.41797 4.28125,0.90625c1.375,0.48828 2.82422,1.0625 4.53125,1.0625c1.66797,0 2.98828,-0.57812 4.28125,-1.0625c1.29297,-0.48437 2.58203,-0.90625 4.5,-0.90625c2.50391,0 5.21094,1.30078 7.34375,3.5625c-3.41406,2.41016 -5.01172,6.16797 -4.6875,9.8125c0.32422,3.68359 2.54297,7.17969 6.1875,9c-0.78906,1.71875 -1.30859,2.85547 -2.46875,4.625c-0.95703,1.45703 -2.09375,3.05078 -3.34375,4.25c-1.25,1.19922 -2.57422,1.95703 -3.90625,1.96875c-1.28516,0.01172 -2.01562,-0.37109 -3.125,-0.875c-1.10937,-0.50391 -2.54297,-1.08203 -4.75,-1.0625c-2.20312,0.01172 -3.65625,0.56641 -4.78125,1.0625c-1.125,0.49609 -1.86328,0.88672 -3.15625,0.875c-1.36719,-0.01172 -2.63672,-0.67578 -3.84375,-1.78125c-1.20703,-1.10547 -2.29687,-2.61328 -3.25,-4.0625c-5.25,-8 -5.67187,-17.39844 -2.65625,-22.03125c2.21094,-3.40234 5.72266,-5.34375 8.84375,-5.34375z"></path></g></g></svg>