<svg xmlns="http://www.w3.org/2000/svg" xmlns:xlink="http://www.w3.org/1999/xlink" viewBox="0,0,256,256" width="50px" height="50px"><g fill="#ffffff" fill-rule="nonzero" stroke="none" stroke-width="1" stroke-linecap="butt" stroke-linejoin="miter" stroke-miterlimit="10" stroke-dasharray="" stroke-dashoffset="0" font-family="none" font-weight="none" font-size="none" text-anchor="none" style="mix-blend-mode: normal"><g transform="scale(5.12,5.12)"><path d="M2.09961,7.03906v35.98047h45.90039v-35.98047zM4.09961,9.03906h21.7207c-1.12,1.76 -2.12047,3.60172 -2.98047,5.51172c-1.92,4.23 -3.17047,8.71008 -3.73047,13.33008l-0.12891,1.11914h8.19922c-0.40886,1.40607 -0.77708,3.11175 -0.91797,5.03516c-0.41036,0.00226 -0.82074,0.00919 -1.23047,-0.00391c-4.353,-0.138 -8.5907,-1.10781 -12.5957,-2.88281l-0.81055,1.82812c4.241,1.88 8.7308,2.90673 13.3418,3.05273c0.369,0.012 0.73552,0.01953 1.10352,0.01953c0.0397,0 0.07943,-0.00377 0.11914,-0.00391c0.00003,0.00199 -0.00003,0.00387 0,0.00586c0.01,1.01 0.08047,2.06992 0.23047,3.16992c0.08,0.6 0.19008,1.19883 0.33008,1.79883h-22.65039zM28.21094,9.03906h17.78906v31.98047h-17.19922c-0.17,-0.69 -0.30039,-1.38008 -0.40039,-2.08008c-0.14,-1.03 -0.2107,-2.00898 -0.2207,-2.95898v-0.00195c4.20224,-0.25189 8.3841,-1.24668 12.25195,-2.93945l-0.80078,-1.83203c-3.59325,1.57166 -7.46835,2.50344 -11.37109,2.75977c0.20027,-2.28823 0.73053,-4.20778 1.24023,-5.62695l0.49023,-1.33984h-8.74023c0.58,-4.02 1.73016,-7.93086 3.41016,-11.63086c1,-2.21 2.19078,-4.33008 3.55078,-6.33008zM34.00781,14.00977v4.97461h2v-4.97461zM13.99805,14.11914v4.86523h1.97266v-4.86523z"></path></g></g></svg>