<svg width="248" height="20" viewBox="0 0 248 20" fill="none" xmlns="http://www.w3.org/2000/svg">
<path d="M0.768 12.956H3.516C3.796 12.956 4.028 12.86 4.212 12.668C4.404 12.476 4.5 12.244 4.5 11.972C4.5 11.612 4.316 11.316 3.948 11.084L1.704 9.536L2.256 8.72L4.656 10.376C5.216 10.776 5.496 11.3 5.496 11.948C5.496 12.332 5.4 12.68 5.208 12.992C5.024 13.304 4.772 13.552 4.452 13.736C4.14 13.912 3.8 14 3.432 14H0.768V12.956ZM7.76231 16.268C8.53031 15.94 9.09031 15.676 9.44231 15.476C9.80231 15.276 10.0623 15.064 10.2223 14.84C10.3823 14.624 10.4623 14.344 10.4623 14H9.17831C8.75431 14 8.36231 13.9 8.00231 13.7C7.65031 13.5 7.36631 13.228 7.15031 12.884C6.94231 12.54 6.83831 12.156 6.83831 11.732C6.83831 11.308 6.94231 10.92 7.15031 10.568C7.36631 10.208 7.65031 9.924 8.00231 9.716C8.36231 9.5 8.75431 9.392 9.17831 9.392C9.59431 9.392 9.97831 9.5 10.3303 9.716C10.6823 9.924 10.9583 10.208 11.1583 10.568C11.3583 10.92 11.4583 11.308 11.4583 11.732V13.628C11.4583 14.26 11.3383 14.772 11.0983 15.164C10.8583 15.556 10.5143 15.884 10.0663 16.148C9.62631 16.42 8.95831 16.752 8.06231 17.144L7.76231 16.268ZM9.17831 13.004H10.4623V11.72C10.4623 11.36 10.3383 11.056 10.0903 10.808C9.84231 10.552 9.53831 10.424 9.17831 10.424C8.81831 10.424 8.51431 10.552 8.26631 10.808C8.01831 11.056 7.89431 11.36 7.89431 11.72C7.89431 12.08 8.01831 12.384 8.26631 12.632C8.51431 12.88 8.81831 13.004 9.17831 13.004ZM11.4103 12.956H12.1303C12.2103 12.956 12.2503 12.996 12.2503 13.076V13.88C12.2503 13.96 12.2103 14 12.1303 14H11.4103V12.956ZM12.1289 14C12.0489 14 12.0089 13.96 12.0089 13.88V13.076C12.0089 12.996 12.0489 12.956 12.1289 12.956H12.6809C12.9609 12.956 13.1969 12.86 13.3889 12.668C13.5889 12.468 13.6889 12.232 13.6889 11.96V6.092H14.6849V11.96C14.6849 12.24 14.7809 12.476 14.9729 12.668C15.1729 12.86 15.4129 12.956 15.6929 12.956H16.2449C16.3249 12.956 16.3649 12.996 16.3649 13.076V13.88C16.3649 13.96 16.3249 14 16.2449 14H15.6929C15.3569 14 15.0569 13.92 14.7929 13.76C14.5289 13.592 14.3249 13.372 14.1809 13.1C14.0369 13.38 13.8329 13.6 13.5689 13.76C13.3129 13.92 13.0169 14 12.6809 14H12.1289ZM16.2422 14C16.1622 14 16.1222 13.96 16.1222 13.88V13.076C16.1222 12.996 16.1622 12.956 16.2422 12.956H16.8062C17.0862 12.956 17.3222 12.856 17.5142 12.656C17.7142 12.456 17.8142 12.212 17.8142 11.924V9.74H18.7982V11.984C18.7982 12.352 18.7062 12.692 18.5222 13.004C18.3462 13.308 18.1062 13.552 17.8022 13.736C17.4982 13.912 17.1622 14 16.7942 14H16.2422ZM17.6702 7.544H18.7382V8.6H17.6702V7.544ZM20.2348 6.092H21.2188V14H20.2348V6.092ZM22.6586 12.956H25.4066C25.6866 12.956 25.9186 12.86 26.1026 12.668C26.2946 12.476 26.3906 12.244 26.3906 11.972C26.3906 11.612 26.2066 11.316 25.8386 11.084L23.5946 9.536L24.1466 8.72L26.5466 10.376C27.1066 10.776 27.3866 11.3 27.3866 11.948C27.3866 12.332 27.2906 12.68 27.0986 12.992C26.9146 13.304 26.6626 13.552 26.3426 13.736C26.0306 13.912 25.6906 14 25.3226 14H22.6586V12.956Z" fill="white"/>
<circle cx="44" cy="10" r="8" fill="#8E6E94"/>
<path d="M76.768 12.956H79.516C79.796 12.956 80.028 12.86 80.212 12.668C80.404 12.476 80.5 12.244 80.5 11.972C80.5 11.612 80.316 11.316 79.948 11.084L77.704 9.536L78.256 8.72L80.656 10.376C81.216 10.776 81.496 11.3 81.496 11.948C81.496 12.332 81.4 12.68 81.208 12.992C81.024 13.304 80.772 13.552 80.452 13.736C80.14 13.912 79.8 14 79.432 14H76.768V12.956ZM83.7623 16.268C84.5303 15.94 85.0903 15.676 85.4423 15.476C85.8023 15.276 86.0623 15.064 86.2223 14.84C86.3823 14.624 86.4623 14.344 86.4623 14H85.1783C84.7543 14 84.3623 13.9 84.0023 13.7C83.6503 13.5 83.3663 13.228 83.1503 12.884C82.9423 12.54 82.8383 12.156 82.8383 11.732C82.8383 11.308 82.9423 10.92 83.1503 10.568C83.3663 10.208 83.6503 9.924 84.0023 9.716C84.3623 9.5 84.7543 9.392 85.1783 9.392C85.5943 9.392 85.9783 9.5 86.3303 9.716C86.6823 9.924 86.9583 10.208 87.1583 10.568C87.3583 10.92 87.4583 11.308 87.4583 11.732V13.628C87.4583 14.26 87.3383 14.772 87.0983 15.164C86.8583 15.556 86.5143 15.884 86.0663 16.148C85.6263 16.42 84.9583 16.752 84.0623 17.144L83.7623 16.268ZM85.1783 13.004H86.4623V11.72C86.4623 11.36 86.3383 11.056 86.0903 10.808C85.8423 10.552 85.5383 10.424 85.1783 10.424C84.8183 10.424 84.5143 10.552 84.2663 10.808C84.0183 11.056 83.8943 11.36 83.8943 11.72C83.8943 12.08 84.0183 12.384 84.2663 12.632C84.5143 12.88 84.8183 13.004 85.1783 13.004ZM87.4103 12.956H88.1303C88.2103 12.956 88.2503 12.996 88.2503 13.076V13.88C88.2503 13.96 88.2103 14 88.1303 14H87.4103V12.956ZM88.1289 14C88.0489 14 88.0089 13.96 88.0089 13.88V13.076C88.0089 12.996 88.0489 12.956 88.1289 12.956H88.6809C88.9609 12.956 89.1969 12.86 89.3889 12.668C89.5889 12.468 89.6889 12.232 89.6889 11.96V6.092H90.6849V11.96C90.6849 12.24 90.7809 12.476 90.9729 12.668C91.1729 12.86 91.4129 12.956 91.6929 12.956H92.2449C92.3249 12.956 92.3649 12.996 92.3649 13.076V13.88C92.3649 13.96 92.3249 14 92.2449 14H91.6929C91.3569 14 91.0569 13.92 90.7929 13.76C90.5289 13.592 90.3249 13.372 90.1809 13.1C90.0369 13.38 89.8329 13.6 89.5689 13.76C89.3129 13.92 89.0169 14 88.6809 14H88.1289ZM92.2422 14C92.1622 14 92.1222 13.96 92.1222 13.88V13.076C92.1222 12.996 92.1622 12.956 92.2422 12.956H93.1302C93.4102 12.956 93.6462 12.856 93.8382 12.656C94.0382 12.456 94.1382 12.212 94.1382 11.924V9.74H95.1222V11.984C95.1222 12.352 95.0302 12.692 94.8462 13.004C94.6702 13.308 94.4302 13.552 94.1262 13.736C93.8222 13.912 93.4862 14 93.1182 14H92.2422ZM93.0942 16.796H94.1502V17.864H93.0942V16.796ZM92.2422 15.104H93.2982V16.172H92.2422V15.104ZM93.9342 15.104H94.9902V16.172H93.9342V15.104ZM96.3394 6.86H97.3234V14H96.3394V6.86ZM95.0194 6.068C95.0194 5.788 95.1074 5.56 95.2834 5.384C95.4594 5.2 95.6874 5.108 95.9674 5.108H98.3194V5.9H96.0514C95.9554 5.9 95.8714 5.936 95.7994 6.008C95.7274 6.072 95.6914 6.156 95.6914 6.26V6.752H95.0194V6.068Z" fill="white"/>
<circle cx="114" cy="10" r="8" fill="#449271"/>
<path d="M147.5 13.34C147.284 13.124 147.12 12.88 147.008 12.608C146.904 12.336 146.852 12.056 146.852 11.768C146.852 11.456 146.912 11.156 147.032 10.868C147.152 10.572 147.328 10.308 147.56 10.076L148.472 9.176L147.968 8.684L148.664 7.976L150.776 10.076C151 10.308 151.172 10.572 151.292 10.868C151.412 11.156 151.472 11.456 151.472 11.768C151.472 12.056 151.416 12.336 151.304 12.608C151.192 12.88 151.028 13.124 150.812 13.34C150.588 13.564 150.332 13.736 150.044 13.856C149.764 13.968 149.472 14.024 149.168 14.024C148.864 14.024 148.568 13.968 148.28 13.856C147.992 13.736 147.732 13.564 147.5 13.34ZM148.244 12.596C148.516 12.852 148.824 12.98 149.168 12.98C149.528 12.98 149.832 12.852 150.08 12.596C150.328 12.356 150.452 12.06 150.452 11.708C150.452 11.348 150.324 11.04 150.068 10.784L149.156 9.872L148.256 10.772C148 11.044 147.872 11.352 147.872 11.696C147.872 12.048 147.996 12.348 148.244 12.596ZM152.815 12.956H155.527C155.791 12.956 156.011 12.872 156.187 12.704C156.371 12.536 156.463 12.324 156.463 12.068C156.463 11.996 156.439 11.88 156.391 11.72L155.335 8.816L156.271 8.48L157.639 12.248C157.711 12.456 157.839 12.628 158.023 12.764C158.207 12.892 158.411 12.956 158.635 12.956H158.803C158.883 12.956 158.923 12.996 158.923 13.076V13.88C158.923 13.96 158.883 14 158.803 14H158.599C158.255 14 157.947 13.92 157.675 13.76C157.403 13.592 157.203 13.38 157.075 13.124C156.731 13.708 156.215 14 155.527 14H152.815V12.956ZM158.809 14C158.729 14 158.689 13.96 158.689 13.88V13.076C158.689 12.996 158.729 12.956 158.809 12.956H159.373C159.653 12.956 159.889 12.856 160.081 12.656C160.281 12.456 160.381 12.212 160.381 11.924V9.74H161.365V11.984C161.365 12.352 161.273 12.692 161.089 13.004C160.913 13.308 160.673 13.552 160.369 13.736C160.065 13.912 159.729 14 159.361 14H158.809ZM160.237 7.544H161.305V8.6H160.237V7.544ZM164.805 14C164.437 14 164.101 13.912 163.797 13.736C163.493 13.552 163.249 13.308 163.065 13.004C162.889 12.692 162.801 12.352 162.801 11.984V6.092H163.785V11.924C163.785 12.212 163.881 12.456 164.073 12.656C164.273 12.856 164.513 12.956 164.793 12.956H165.333C165.413 12.956 165.453 12.996 165.453 13.076V13.88C165.453 13.96 165.413 14 165.333 14H164.805ZM169.272 14.024C168.848 14.024 168.464 13.92 168.12 13.712C167.776 13.504 167.504 13.22 167.304 12.86C167.112 12.5 167.016 12.108 167.016 11.684V10.412H166.308V9.416H169.272C169.696 9.416 170.088 9.516 170.448 9.716C170.808 9.916 171.092 10.188 171.3 10.532C171.508 10.876 171.612 11.26 171.612 11.684C171.612 12.108 171.508 12.5 171.3 12.86C171.092 13.22 170.808 13.504 170.448 13.712C170.088 13.92 169.696 14.024 169.272 14.024ZM165.336 14C165.256 14 165.216 13.96 165.216 13.88V13.076C165.216 12.996 165.256 12.956 165.336 12.956H166.008C166.288 12.956 166.524 12.86 166.716 12.668C166.916 12.468 167.016 12.232 167.016 11.96V10.664H167.808V11.996C167.808 12.364 167.732 12.7 167.58 13.004C167.436 13.308 167.224 13.552 166.944 13.736C166.672 13.912 166.36 14 166.008 14H165.336ZM169.272 12.98C169.632 12.98 169.936 12.856 170.184 12.608C170.44 12.352 170.568 12.044 170.568 11.684C170.568 11.332 170.44 11.032 170.184 10.784C169.936 10.536 169.632 10.412 169.272 10.412H167.988V11.684C167.988 12.044 168.112 12.352 168.36 12.608C168.608 12.856 168.912 12.98 169.272 12.98ZM175.516 11.852H176.5V14.324C176.5 14.628 176.572 14.908 176.716 15.164C176.868 15.42 177.072 15.62 177.328 15.764C177.584 15.916 177.864 15.992 178.168 15.992H180.808C181.088 15.992 181.324 15.896 181.516 15.704C181.708 15.512 181.804 15.276 181.804 14.996C181.804 14.724 181.704 14.488 181.504 14.288C181.312 14.096 181.08 14 180.808 14H178.888V13.16H180.796C181.172 13.16 181.516 13.236 181.828 13.388C182.14 13.54 182.384 13.752 182.56 14.024C182.744 14.304 182.836 14.628 182.836 14.996C182.836 15.364 182.744 15.704 182.56 16.016C182.376 16.336 182.128 16.588 181.816 16.772C181.504 16.956 181.164 17.048 180.796 17.048H178.168C177.688 17.048 177.244 16.928 176.836 16.688C176.428 16.448 176.104 16.124 175.864 15.716C175.632 15.308 175.516 14.86 175.516 14.372V11.852ZM178.552 14V12.956H183.484C183.564 12.956 183.604 12.996 183.604 13.076V13.88C183.604 13.96 183.564 14 183.484 14H178.552ZM183.488 14C183.408 14 183.368 13.96 183.368 13.88V13.076C183.368 12.996 183.408 12.956 183.488 12.956H186.344C186.624 12.956 186.86 12.86 187.052 12.668C187.252 12.468 187.352 12.228 187.352 11.948V11.708H186.284C185.892 11.708 185.532 11.616 185.204 11.432C184.884 11.248 184.628 11 184.436 10.688C184.244 10.376 184.148 10.028 184.148 9.644C184.148 9.252 184.244 8.892 184.436 8.564C184.628 8.236 184.888 7.976 185.216 7.784C185.544 7.592 185.9 7.496 186.284 7.496C186.668 7.496 187.016 7.592 187.328 7.784C187.648 7.976 187.896 8.236 188.072 8.564C188.256 8.892 188.348 9.252 188.348 9.644V11.996C188.348 12.356 188.256 12.692 188.072 13.004C187.896 13.308 187.656 13.552 187.352 13.736C187.048 13.912 186.712 14 186.344 14H183.488ZM187.412 10.772V9.608C187.412 9.288 187.3 9.016 187.076 8.792C186.852 8.568 186.58 8.456 186.26 8.456C185.932 8.456 185.656 8.568 185.432 8.792C185.208 9.008 185.096 9.28 185.096 9.608C185.096 9.944 185.208 10.224 185.432 10.448C185.656 10.664 185.932 10.772 186.26 10.772H187.412ZM184.916 5.3H185.972V6.356H184.916V5.3ZM186.596 5.3H187.652V6.356H186.596V5.3ZM191.782 14C191.414 14 191.078 13.912 190.774 13.736C190.47 13.552 190.226 13.308 190.042 13.004C189.866 12.692 189.778 12.352 189.778 11.984V6.092H190.762V11.924C190.762 12.212 190.858 12.456 191.05 12.656C191.25 12.856 191.49 12.956 191.77 12.956H192.31C192.39 12.956 192.43 12.996 192.43 13.076V13.88C192.43 13.96 192.39 14 192.31 14H191.782ZM192.312 14C192.232 14 192.192 13.96 192.192 13.88V13.076C192.192 12.996 192.232 12.956 192.312 12.956H192.877C193.157 12.956 193.393 12.856 193.585 12.656C193.785 12.456 193.885 12.212 193.885 11.924V9.74H194.869V11.984C194.869 12.352 194.777 12.692 194.593 13.004C194.417 13.308 194.177 13.552 193.873 13.736C193.569 13.912 193.233 14 192.865 14H192.312ZM192.312 15.104H193.369V16.172H192.312V15.104ZM198.766 11.504C198.766 11.128 198.858 10.78 199.042 10.46C199.226 10.14 199.478 9.888 199.798 9.704C200.118 9.512 200.47 9.416 200.854 9.416H203.59C204.014 9.416 204.406 9.516 204.766 9.716C205.126 9.916 205.41 10.188 205.618 10.532C205.826 10.876 205.93 11.26 205.93 11.684C205.93 12.108 205.826 12.5 205.618 12.86C205.41 13.22 205.126 13.504 204.766 13.712C204.406 13.92 204.014 14.024 203.59 14.024C203.166 14.024 202.782 13.92 202.438 13.712C202.094 13.504 201.822 13.22 201.622 12.86C201.422 12.5 201.322 12.108 201.322 11.684V10.412H200.842C200.546 10.412 200.29 10.52 200.074 10.736C199.858 10.944 199.75 11.2 199.75 11.504V17H198.766V11.504ZM203.59 12.98C203.95 12.98 204.254 12.856 204.502 12.608C204.758 12.352 204.886 12.044 204.886 11.684C204.886 11.332 204.758 11.032 204.502 10.784C204.254 10.528 203.95 10.4 203.59 10.4H202.306V11.684C202.306 12.044 202.43 12.352 202.678 12.608C202.926 12.856 203.23 12.98 203.59 12.98ZM206.938 14C206.578 14 206.262 13.912 205.99 13.736C205.718 13.552 205.506 13.308 205.354 13.004C205.21 12.7 205.138 12.364 205.138 11.996V11.684H205.93V11.96C205.93 12.232 206.026 12.468 206.218 12.668C206.418 12.86 206.658 12.956 206.938 12.956H207.49C207.57 12.956 207.61 12.996 207.61 13.076V13.88C207.61 13.96 207.57 14 207.49 14H206.938ZM207.488 14C207.408 14 207.368 13.96 207.368 13.88V13.076C207.368 12.996 207.408 12.956 207.488 12.956H209.684C210.036 12.956 210.368 12.9 210.68 12.788C210.992 12.668 211.264 12.504 211.496 12.296L213.008 10.916L210.896 9.908C210.704 9.82 210.536 9.776 210.392 9.776C210.256 9.776 210.116 9.808 209.972 9.872C209.836 9.936 209.716 10.02 209.612 10.124L208.748 11.108L208.064 10.52L208.928 9.464C209.104 9.256 209.32 9.092 209.576 8.972C209.832 8.852 210.108 8.792 210.404 8.792C210.588 8.792 210.74 8.812 210.86 8.852C210.98 8.892 211.12 8.952 211.28 9.032L213.896 10.256C213.944 10.28 214.016 10.292 214.112 10.292H215.108V11.264H213.968L213.44 11.744V11.96C213.44 12.232 213.536 12.468 213.728 12.668C213.928 12.86 214.168 12.956 214.448 12.956H215.66C215.74 12.956 215.78 12.996 215.78 13.076V13.88C215.78 13.96 215.74 14 215.66 14H214.448C213.992 14 213.604 13.856 213.284 13.568C212.972 13.28 212.772 12.912 212.684 12.464L212.048 13.064C211.72 13.368 211.336 13.6 210.896 13.76C210.464 13.92 210.008 14 209.528 14H207.488ZM209.864 15.104H210.92V16.172H209.864V15.104ZM215.656 14C215.576 14 215.536 13.96 215.536 13.88V13.076C215.536 12.996 215.576 12.956 215.656 12.956H217.852C218.204 12.956 218.536 12.9 218.848 12.788C219.16 12.668 219.432 12.504 219.664 12.296L221.176 10.916L219.064 9.908C218.872 9.82 218.704 9.776 218.56 9.776C218.424 9.776 218.284 9.808 218.14 9.872C218.004 9.936 217.884 10.02 217.78 10.124L216.916 11.108L216.232 10.52L217.096 9.464C217.272 9.256 217.488 9.092 217.744 8.972C218 8.852 218.276 8.792 218.572 8.792C218.756 8.792 218.908 8.812 219.028 8.852C219.148 8.892 219.288 8.952 219.448 9.032L222.064 10.256C222.112 10.28 222.184 10.292 222.28 10.292H223.276V11.264H222.16L220.216 13.064C219.888 13.368 219.504 13.6 219.064 13.76C218.632 13.92 218.176 14 217.696 14H215.656Z" fill="white"/>
<circle cx="240" cy="10" r="8" fill="#4D4D4D"/>
</svg>
