<svg width="24" height="24" viewBox="0 0 24 24" fill="none" xmlns="http://www.w3.org/2000/svg">
<path d="M12 11.1346C13.1385 11.1346 14.1058 10.7301 14.9019 9.92115C15.6981 9.11218 16.0962 8.13847 16.0962 7V4H7.90385V7C7.90385 8.13847 8.30193 9.11218 9.09808 9.92115C9.89423 10.7301 10.8615 11.1346 12 11.1346ZM4.50003 21.5V20H6.40388V17C6.40388 15.8743 6.71189 14.8497 7.32793 13.9259C7.94396 13.0022 8.76032 12.3602 9.777 12C8.76032 11.6333 7.94396 10.9898 7.32793 10.0692C6.71189 9.14873 6.40388 8.12565 6.40388 7V4H4.50003V2.50002H19.5V4H17.5961V7C17.5961 8.12565 17.2881 9.14873 16.6721 10.0692C16.056 10.9898 15.2397 11.6333 14.223 12C15.2397 12.3602 16.056 13.0022 16.6721 13.9259C17.2881 14.8497 17.5961 15.8743 17.5961 17V20H19.5V21.5H4.50003Z" fill="#808080"/>
</svg>
